Coordinates
version=1
nRows=12
nColumns=46
inDegrees=yes

Units are S.I. units (second, meters, Newtons, ...)
Angles are in degrees.

endheader
time	pelvis_tilt	pelvis_list	pelvis_rotation	pelvis_tx	pelvis_ty	pelvis_tz	bb_angle	bb_tx	bb_ty	bb_tz	hip_flexion_r	hip_adduction_r	hip_rotation_r	knee_angle_r	knee_angle_r_beta	ankle_angle_r	subtalar_angle_r	mtp_angle_r	crank_angle_r	hip_flexion_l	hip_adduction_l	hip_rotation_l	knee_angle_l	knee_angle_l_beta	ankle_angle_l	subtalar_angle_l	mtp_angle_l	crank_angle_l	lumbar_extension	lumbar_bending	lumbar_rotation	arm_flex_r	arm_add_r	arm_rot_r	elbow_flex_r	pro_sup_r	wrist_flex_r	wrist_dev_r	arm_flex_l	arm_add_l	arm_rot_l	elbow_flex_l	pro_sup_l	wrist_flex_l	wrist_dev_l
      2.50500000	    -22.04379012	      4.24188557	      1.99434866	      0.14924427	      1.06758331	     -0.21868526	      0.00000000	      0.50000000	      0.00000000	      0.25000000	     61.80112637	     -7.70732827	      2.75807785	     44.10358574	      0.76975278	     -7.51362547	     -7.80645925	      0.00000000	      0.00000000	     69.55877367	     -1.76583278	     -1.65457302	     96.50678502	      1.68436115	    -11.48514768	    -16.86254836	      0.00000000	      0.00000000	    -56.24843876	     -0.27997249	     -4.59549624	     88.52234736	    -17.15321387	     32.69635507	     64.01214606	     42.17916397	      0.00000000	      0.00000000	     86.03152100	    -13.91557524	     20.06774059	     60.19397767	     45.31058976	      0.00000000	      0.00000000
      2.51000000	    -21.92021053	      4.18546522	      1.88266220	      0.15105804	      1.06855964	     -0.21828715	      0.00000000	      0.50000000	      0.00000000	      0.25000000	     60.50954373	     -7.80392261	      2.15163895	     42.23945752	      0.73721761	     -9.66147821	     -7.37100451	      0.00000000	      0.00000000	     70.30593363	     -1.96854010	     -1.48399005	     97.85681848	      1.70792368	    -11.13342497	    -16.45026289	      0.00000000	      0.00000000	    -56.41629769	     -0.19176627	     -4.31315381	     88.56135903	    -17.30243086	     33.11866894	     64.03774550	     42.25484607	      0.00000000	      0.00000000	     85.89141773	    -14.03418134	     20.35856134	     60.26250704	     45.37891771	      0.00000000	      0.00000000
      2.51500000	    -21.93521679	      4.55630040	      1.79720304	      0.15282535	      1.06917494	     -0.21813739	      0.00000000	      0.50000000	      0.00000000	      0.25000000	     59.60349239	     -8.28065955	      1.81624500	     40.73997996	      0.71104679	    -11.46402370	     -6.14226034	      0.00000000	      0.00000000	     71.11048536	     -1.82436143	     -1.66989487	     99.08242066	      1.72931447	    -10.84423269	    -16.43719340	      0.00000000	      0.00000000	    -56.41291036	     -0.47771208	     -4.54048450	     88.45965385	    -17.35605368	     33.23672989	     64.02536335	     42.27461027	      0.00000000	      0.00000000	     85.80108242	    -13.92836755	     20.45592654	     60.23828032	     45.39340936	      0.00000000	      0.00000000
      2.52000000	    -21.80889328	      4.83672460	      1.75550063	      0.15431436	      1.06998189	     -0.21795669	      0.00000000	      0.50000000	      0.00000000	      0.25000000	     58.50215323	     -8.71542759	      1.40909868	     39.19814846	      0.68413675	    -13.32806585	     -5.00696867	      0.00000000	      0.00000000	     71.83133253	     -1.66442941	     -1.71930854	    100.29500535	      1.75047807	    -10.55973426	    -16.39235278	      0.00000000	      0.00000000	    -56.54824510	     -0.68921274	     -4.73331065	     88.41716161	    -17.39660804	     33.34526691	     63.98236568	     42.28784030	      0.00000000	      0.00000000	     85.73615979	    -13.77789549	     20.53144055	     60.17553663	     45.39863485	      0.00000000	      0.00000000
      2.52500000	    -21.50022968	      4.95245427	      1.59708229	      0.15600218	      1.07134412	     -0.21738263	      0.00000000	      0.50000000	      0.00000000	      0.25000000	     57.02483203	     -8.89393345	      0.92117016	     37.35332776	      0.65193856	    -15.44645250	     -4.32842621	      0.00000000	      0.00000000	     72.32076270	     -1.77398536	     -1.66473009	    101.43725714	      1.77041412	     -9.97523055	    -15.78911009	      0.00000000	      0.00000000	    -56.89941039	     -0.78065832	     -4.47947635	     88.53247753	    -17.52227800	     33.65241635	     63.76222086	     42.32960731	      0.00000000	      0.00000000	     85.81214901	    -13.39555281	     20.44018483	     59.74885208	     45.36051138	      0.00000000	      0.00000000
      2.53000000	    -21.51777031	      5.32088146	      1.45455372	      0.15774868	      1.07167092	     -0.21735339	      0.00000000	      0.50000000	      0.00000000	      0.25000000	     56.14217837	     -9.32381820	      0.66138307	     35.98785404	      0.62810654	    -17.14613938	     -3.06235801	      0.00000000	      0.00000000	     73.19044108	     -1.63822950	     -1.83926751	    102.64086574	      1.79142105	     -9.63414817	    -15.84248843	      0.00000000	      0.00000000	    -56.83693183	     -1.11864376	     -4.73856469	     88.41946710	    -17.52842627	     33.72912503	     63.71586135	     42.33900273	      0.00000000	      0.00000000	     85.64773720	    -13.22485948	     20.46425429	     59.64969895	     45.35602848	      0.00000000	      0.00000000
      2.53500000	    -21.45962965	      5.62894700	      1.34535576	      0.15927490	      1.07228770	     -0.21722945	      0.00000000	      0.50000000	      0.00000000	      0.25000000	     55.04935886	     -9.70218358	      0.38370465	     34.32355245	      0.59905900	    -19.05988500	     -1.80548358	      0.00000000	      0.00000000	     73.98095111	     -1.54664293	     -1.99333145	    103.71888290	      1.81023600	     -9.17633352	    -15.76093085	      0.00000000	      0.00000000	    -56.85936663	     -1.28290543	     -4.76844646	     88.33263915	    -17.48073097	     33.88002328	     63.56403960	     42.34203897	      0.00000000	      0.00000000	     85.51134290	    -13.05376773	     20.39835186	     59.51988581	     45.34084344	      0.00000000	      0.00000000
      2.54000000	    -21.19592554	      5.76735149	      1.19426801	      0.16083653	      1.07290806	     -0.21711159	      0.00000000	      0.50000000	      0.00000000	      0.25000000	     53.72822839	     -9.94310760	     -0.02998201	     32.78178527	      0.57215009	    -20.81444909	     -0.95749127	      0.00000000	      0.00000000	     74.61338406	     -1.57092816	     -1.92120672	    104.89544960	      1.83077097	     -8.43331749	    -15.07057475	      0.00000000	      0.00000000	    -57.02538021	     -1.37592093	     -4.71345977	     88.44716086	    -17.35632391	     34.25949795	     62.92730510	     42.32337528	      0.00000000	      0.00000000	     85.31042951	    -12.62498380	     19.85549129	     59.19075611	     45.28414053	      0.00000000	      0.00000000
      2.54500000	    -21.13949675	      6.11621812	      1.12898831	      0.16210408	      1.07299429	     -0.21714533	      0.00000000	      0.50000000	      0.00000000	      0.25000000	     52.81141392	    -10.39724277	     -0.33577770	     31.59915254	      0.55150925	    -22.24779432	      0.04474207	      0.00000000	      0.00000000	     75.48879203	     -1.41131389	     -2.10110309	    106.01143551	      1.85024859	     -7.88780267	    -15.12897435	      0.00000000	      0.00000000	    -57.00358298	     -1.67590377	     -5.04378949	     88.36416042	    -17.34230519	     34.28630452	     62.85198542	     42.32532259	      0.00000000	      0.00000000	     85.10647171	    -12.48029502	     19.80160880	     59.15119735	     45.28089396	      0.00000000	      0.00000000
      2.55000000	    -20.89549743	      6.31587129	      1.05073489	      0.16362443	      1.07358083	     -0.21718658	      0.00000000	      0.50000000	      0.00000000	      0.25000000	     51.47765797	    -10.71041430	     -0.76203234	     30.09977201	      0.52534013	    -23.89432873	      0.93278869	      0.00000000	      0.00000000	     76.13533006	     -1.37833936	     -2.15528345	    107.04433314	      1.86827606	     -7.12261081	    -14.40673357	      0.00000000	      0.00000000	    -57.13526180	     -1.73066007	     -5.13979953	     88.35158520	    -17.16771524	     34.60439156	     62.40429559	     42.31643462	      0.00000000	      0.00000000	     84.80161065	    -12.38801528	     19.48042858	     59.05044458	     45.26639974	      0.00000000	      0.00000000
      2.55500000	    -20.91420670	      6.65097194	      0.98084349	      0.16486153	      1.07325639	     -0.21726298	      0.00000000	      0.50000000	      0.00000000	      0.25000000	     50.67715652	    -11.11503367	     -1.09230101	     29.10562230	      0.50798894	    -25.08984816	      1.75245171	      0.00000000	      0.00000000	     77.07110005	     -1.26439182	     -2.35284443	    108.10056248	      1.88671074	     -6.26305715	    -14.54408074	      0.00000000	      0.00000000	    -56.99077824	     -2.00451728	     -5.39367540	     88.25126754	    -17.11580428	     34.71085410	     62.23039534	     42.31356254	      0.00000000	      0.00000000	     84.56075657	    -12.30779754	     19.40800378	     59.06869670	     45.27453100	      0.00000000	      0.00000000
      2.56000000	    -20.97811913	      6.89002185	      0.95352823	      0.16629109	      1.07282582	     -0.21743672	      0.00000000	      0.50000000	      0.00000000	      0.25000000	     49.83857323	    -11.46192297	     -1.53187122	     28.07636552	      0.49002502	    -26.15020320	      2.44348541	      0.00000000	      0.00000000	     78.06756956	     -1.17071967	     -2.46308570	    109.10981234	      1.90432547	     -5.75855236	    -14.35541567	      0.00000000	      0.00000000	    -56.75827112	     -2.24287565	     -5.68703028	     88.12989150	    -17.12943635	     34.81108800	     62.04580804	     42.30868918	      0.00000000	      0.00000000	     84.19056118	    -12.29590323	     19.37650786	     59.08467691	     45.28687397	      0.00000000	      0.00000000
